<?xml version="1.0" encoding="UTF-8" standalone="no"?>
<!DOCTYPE svg PUBLIC "-//W3C//DTD SVG 1.1//EN" "http://www.w3.org/Graphics/SVG/1.1/DTD/svg11.dtd">
<svg width="100%" height="100%" viewBox="0 0 107 59" version="1.1" xmlns="http://www.w3.org/2000/svg" xmlns:xlink="http://www.w3.org/1999/xlink" xml:space="preserve" xmlns:serif="http://www.serif.com/" style="fill-rule:evenodd;clip-rule:evenodd;stroke-linejoin:round;stroke-miterlimit:1.41421;">
    <g transform="matrix(1,0,0,1,-650,-99)">
        <path d="M730.774,112.43C727.394,112.43 724.644,109.68 724.644,106.303C724.644,102.924 727.394,100.174 730.774,100.174C734.15,100.174 736.898,102.924 736.898,106.303C736.898,109.68 734.15,112.43 730.774,112.43Z" style="fill:rgb(255,140,38);fill-rule:nonzero;"/>
        <path d="M698.986,133.613C701.153,133.613 702.768,132.761 702.768,130.85C702.768,128.813 701.059,128.047 698.986,128.047L692.935,128.047L692.935,133.613L698.986,133.613ZM698.695,123.914C700.517,123.914 701.873,123.151 701.873,121.414C701.873,119.87 700.757,118.906 698.695,118.906L692.935,118.906L692.935,123.914L698.695,123.914ZM710.405,131.441C710.405,135.646 707.278,138.19 701.414,138.19L685.774,138.19L685.774,121.032C685.774,117.242 687.955,114.334 692.705,114.334L700.754,114.334C706.322,114.334 708.991,116.575 708.991,120.398C708.991,122.947 707.374,124.606 705.151,125.414L705.151,125.575C706.723,125.777 710.405,127.44 710.405,131.441ZM667.385,119.29L663.403,128.633L671.623,128.633L667.642,119.29L667.385,119.29ZM672.67,114.334L684.036,138.19L675.562,138.19L673.423,133.082L661.606,133.082L659.465,138.19L651.557,138.19C651.557,138.19 657.218,126.449 659.16,122.158C661.438,117.115 663.382,114.334 668.112,114.334L672.67,114.334ZM748.814,138.19L742.176,138.19L740.606,123.806L740.256,123.806L735.24,138.19L726.324,138.19L721.306,123.806L720.955,123.806L719.39,138.19L712.752,138.19C712.752,138.19 714.084,126.091 714.622,121.195C715.126,116.647 717.506,114.334 721.702,114.334L724.711,114.334L730.654,131.114L730.91,131.114L736.848,114.334L739.831,114.334C744.01,114.334 746.395,116.65 746.916,121.205C747.454,125.909 748.814,138.19 748.814,138.19Z" style="fill:rgb(0,87,172);fill-rule:nonzero;"/>
        <path d="M686.89,153.024L688.462,153.024C689.705,153.024 689.947,152.39 689.947,151.778C689.947,150.902 689.558,150.514 688.481,150.514L686.89,150.514L686.89,153.024ZM688.397,147.223L686.89,147.223L686.89,149.458L688.481,149.458C689.45,149.458 689.695,148.889 689.695,148.339C689.695,147.78 689.503,147.223 688.397,147.223ZM685.771,146.17L688.356,146.17C690.252,146.17 690.886,147.149 690.886,148.339C690.886,148.932 690.622,149.532 690.115,149.911C690.821,150.259 691.138,151.008 691.138,151.778C691.138,153.055 690.444,154.078 688.418,154.078L685.771,154.078" style="fill:rgb(0,87,172);fill-rule:nonzero;"/>
        <path d="M693.322,152.537C693.322,153.034 693.691,153.214 694.176,153.214C694.704,153.214 695.114,153.096 695.4,152.959L695.4,148.805L696.487,148.805L696.487,154.078L695.758,154.078L695.652,153.782C695.22,154.068 694.685,154.214 694.176,154.214C692.88,154.214 692.237,153.583 692.237,152.518L692.237,148.805L693.322,148.805" style="fill:rgb(0,87,172);fill-rule:nonzero;"/>
        <path d="M699.187,154.214C698.352,154.214 697.91,153.878 697.91,152.938L697.91,148.805L698.976,148.805L698.976,152.969C698.976,153.161 699.082,153.214 699.386,153.214L699.386,154.214L699.187,154.214ZM698.45,146.304C698.858,146.304 699.187,146.633 699.187,147.043C699.187,147.456 698.858,147.78 698.45,147.78C698.038,147.78 697.711,147.456 697.711,147.043C697.711,146.633 698.038,146.304 698.45,146.304Z" style="fill:rgb(0,87,172);fill-rule:nonzero;"/>
        <path d="M701.918,154.214C701.086,154.214 700.642,153.878 700.642,152.938L700.642,146.167L701.707,146.167L701.707,152.969C701.707,153.161 701.813,153.214 702.12,153.214L702.12,154.214" style="fill:rgb(0,87,172);fill-rule:nonzero;"/>
        <path d="M705.442,149.669C704.41,149.669 704.251,150.48 704.251,151.44C704.251,152.39 704.41,153.214 705.442,153.214C705.96,153.214 706.327,153.108 706.632,152.959L706.632,149.911C706.526,149.858 706.402,149.815 706.243,149.774C706.032,149.722 705.78,149.669 705.442,149.669ZM707.698,154.078L706.992,154.078L706.886,153.782C706.411,154.046 705.948,154.214 705.442,154.214C703.658,154.214 703.152,153.096 703.152,151.44C703.152,149.774 703.658,148.668 705.442,148.668C705.862,148.668 706.212,148.762 706.632,148.951L706.632,146.17L707.698,146.17" style="fill:rgb(0,87,172);fill-rule:nonzero;"/>
        <path d="M710.4,154.214C709.565,154.214 709.123,153.878 709.123,152.938L709.123,148.805L710.186,148.805L710.186,152.969C710.186,153.161 710.294,153.214 710.599,153.214L710.599,154.214L710.4,154.214ZM709.661,146.304C710.074,146.304 710.4,146.633 710.4,147.043C710.4,147.456 710.074,147.78 709.661,147.78C709.25,147.78 708.922,147.456 708.922,147.043C708.922,146.633 709.25,146.304 709.661,146.304Z" style="fill:rgb(0,87,172);fill-rule:nonzero;"/>
        <path d="M715.018,150.343C715.018,149.849 714.648,149.669 714.163,149.669C713.635,149.669 713.225,149.786 712.939,149.923L712.939,154.078L711.852,154.078L711.852,148.805L712.584,148.805L712.687,149.1C713.119,148.814 713.657,148.668 714.163,148.668C715.462,148.668 716.105,149.299 716.105,150.365L716.105,154.078L715.018,154.078" style="fill:rgb(0,87,172);fill-rule:nonzero;"/>
        <path d="M719.422,151.778C720.391,151.778 720.509,151.272 720.509,150.725C720.509,150.175 720.391,149.669 719.422,149.669C718.452,149.669 718.346,150.175 718.346,150.725C718.346,151.272 718.452,151.778 719.422,151.778ZM719.105,154.255C718.548,154.438 718.104,154.699 718.104,155.134C718.104,155.705 718.548,155.849 719.422,155.849C720.298,155.849 721.09,155.659 721.09,154.985C721.09,154.615 720.931,154.466 720.478,154.416L719.105,154.255ZM719.422,152.782C719.297,152.782 719.17,152.782 719.052,152.77C718.927,152.854 718.788,152.981 718.788,153.086C718.788,153.214 718.843,153.254 718.98,153.276L720.655,153.475C721.637,153.59 722.174,154.003 722.174,154.985C722.174,156.312 720.888,156.852 719.422,156.852C717.926,156.852 717.029,156.343 717.029,155.134C717.029,154.5 717.43,154.109 717.914,153.857L717.914,153.845C717.799,153.698 717.725,153.497 717.725,153.223C717.725,152.918 717.883,152.654 718.094,152.465C717.514,152.095 717.312,151.452 717.312,150.725C717.312,149.606 717.799,148.668 719.422,148.668C719.791,148.668 720.108,148.721 720.372,148.805L722.071,148.805L722.071,149.52L721.354,149.722C721.478,150.017 721.531,150.365 721.531,150.725C721.531,151.841 721.058,152.782 719.422,152.782Z" style="fill:rgb(0,87,172);fill-rule:nonzero;"/>
        <path d="M729.888,146.167L731.1,146.167L728.294,154.214L727.524,154.214L724.718,146.167L725.933,146.167L727.915,152.359" style="fill:rgb(0,87,172);fill-rule:nonzero;"/>
        <path d="M732.578,151.61C731.916,151.673 731.726,152.042 731.726,152.412C731.726,152.77 731.81,153.214 732.578,153.214C733.025,153.214 733.498,153.055 733.781,152.885L733.781,151.505L732.578,151.61ZM732.811,149.669C732.19,149.669 731.388,149.837 731.009,149.986L731.009,148.982C731.419,148.795 732.317,148.668 732.811,148.668C734.438,148.668 734.858,149.407 734.858,150.502L734.858,154.075L734.131,154.075L734.035,153.804C733.603,154.068 733.025,154.214 732.559,154.214C731.093,154.214 730.639,153.329 730.639,152.412C730.639,151.577 731.03,150.84 732.59,150.713L733.781,150.617L733.781,150.514C733.781,149.942 733.57,149.669 732.811,149.669Z" style="fill:rgb(0,87,172);fill-rule:nonzero;"/>
        <path d="M737.558,154.214C736.726,154.214 736.282,153.878 736.282,152.938L736.282,146.167L737.347,146.167L737.347,152.969C737.347,153.161 737.45,153.214 737.76,153.214L737.76,154.214" style="fill:rgb(0,87,172);fill-rule:nonzero;"/>
        <path d="M739.932,152.537C739.932,153.034 740.302,153.214 740.786,153.214C741.312,153.214 741.725,153.096 742.008,152.959L742.008,148.805L743.095,148.805L743.095,154.078L742.368,154.078L742.262,153.782C741.83,154.068 741.29,154.214 740.786,154.214C739.488,154.214 738.845,153.583 738.845,152.518L738.845,148.805L739.932,148.805" style="fill:rgb(0,87,172);fill-rule:nonzero;"/>
        <path d="M745.406,151.008L747.631,151.008C747.622,150.312 747.514,149.669 746.65,149.669C745.742,149.669 745.478,150.25 745.406,151.008ZM745.416,151.946C745.5,152.674 745.807,153.214 746.65,153.214C747.324,153.214 747.811,153.118 748.464,152.832L748.464,153.857C747.79,154.162 747.156,154.214 746.65,154.214C744.866,154.214 744.298,153.108 744.298,151.44C744.298,149.774 744.866,148.668 746.65,148.668C748.495,148.668 748.75,149.964 748.75,151.44L748.75,151.946" style="fill:rgb(0,87,172);fill-rule:nonzero;"/>
        <path d="M752.942,135.979L753.348,135.979C753.694,135.979 754.068,135.96 754.068,135.545C754.068,135.223 753.775,135.13 753.506,135.13L752.942,135.13L752.942,135.979ZM752.942,137.364L752.628,137.364L752.628,134.849L753.595,134.849C754.164,134.849 754.385,135.094 754.385,135.545C754.385,136.008 754.092,136.202 753.754,136.26L754.502,137.364L754.145,137.364L753.394,136.26L752.942,136.26L752.942,137.364ZM753.418,137.978C754.45,137.978 755.282,137.146 755.282,136.114C755.282,135.082 754.45,134.249 753.418,134.249C752.386,134.249 751.555,135.082 751.555,136.114C751.555,137.146 752.386,137.978 753.418,137.978ZM753.418,133.932C754.62,133.932 755.599,134.911 755.599,136.114C755.599,137.316 754.62,138.295 753.418,138.295C752.215,138.295 751.238,137.316 751.238,136.114C751.238,134.911 752.215,133.932 753.418,133.932Z" style="fill:rgb(0,87,172);fill-rule:nonzero;"/>
    </g>
</svg>
