<?xml version="1.0" standalone="no"?>
<!DOCTYPE svg PUBLIC "-//W3C//DTD SVG 20010904//EN"
 "http://www.w3.org/TR/2001/REC-SVG-20010904/DTD/svg10.dtd">
<svg version="1.0" xmlns="http://www.w3.org/2000/svg"
 width="512.000000pt" height="184.000000pt" viewBox="0 0 512.000000 184.000000"
 preserveAspectRatio="xMidYMid meet">

<g transform="translate(0.000000,184.000000) scale(0.100000,-0.100000)"
fill="#000000" stroke="none">
<path d="M747 1825 c-371 -71 -667 -370 -732 -740 -51 -292 36 -579 239 -793
124 -130 276 -220 446 -263 108 -28 310 -31 412 -6 374 91 649 383 708 751 16
94 8 289 -15 376 -26 103 -115 276 -182 355 -122 145 -278 247 -459 300 -114
33 -299 42 -417 20z m342 -191 c82 -20 190 -71 259 -121 28 -21 52 -40 52 -43
0 -3 -206 -90 -457 -194 -252 -104 -461 -192 -465 -195 -6 -6 50 -152 63 -165
3 -4 30 4 60 18 96 42 98 42 114 2 8 -19 15 -37 15 -40 0 -2 -32 -17 -71 -32
-39 -15 -73 -33 -75 -39 -3 -6 25 -83 62 -171 36 -87 72 -173 79 -191 l14 -32
75 31 c42 18 76 36 76 40 0 5 -21 59 -46 119 -25 61 -44 113 -42 115 2 2 20
10 40 18 l35 15 48 -117 c27 -64 49 -118 50 -120 2 -2 147 57 154 64 2 2 -18
55 -44 119 -26 63 -46 117 -43 120 2 2 20 11 39 19 l36 15 48 -120 c26 -65 49
-119 50 -119 4 0 150 62 153 65 3 3 -143 361 -157 383 -6 10 -24 5 -79 -18
-39 -16 -74 -30 -77 -30 -8 0 -38 71 -32 76 2 2 116 51 253 108 157 66 253
101 260 95 18 -15 72 -139 91 -209 23 -88 23 -272 -1 -360 -55 -202 -192 -374
-377 -470 -214 -111 -478 -105 -696 15 -100 56 -227 187 -281 292 -101 195
-112 419 -31 625 62 158 221 322 376 389 135 59 335 77 472 43z"/>
<path d="M2035 1287 c-3 -6 -4 -181 -3 -387 l3 -375 88 -3 87 -3 0 176 c0 97
4 174 8 171 4 -2 55 -81 112 -175 l105 -171 104 0 c95 0 103 2 99 18 -3 10
-60 100 -127 200 l-121 182 129 182 c71 101 127 186 124 191 -2 4 -47 7 -99 7
l-94 0 -117 -176 -118 -177 -3 177 -2 176 -86 0 c-59 0 -86 -4 -89 -13z"/>
<path d="M2788 1115 c-61 -22 -106 -63 -135 -123 -25 -50 -27 -66 -27 -171 0
-104 2 -122 26 -172 55 -120 181 -162 388 -128 84 13 92 21 88 83 l-3 51 -120
-3 c-68 -2 -132 1 -147 7 -30 11 -53 42 -63 84 l-7 27 181 0 181 0 0 68 c0
103 -23 168 -79 222 -27 26 -63 51 -87 58 -54 16 -149 14 -196 -3z m162 -143
c13 -11 23 -33 27 -60 l6 -42 -91 0 c-50 0 -93 4 -96 8 -10 16 15 81 37 97 29
20 90 19 117 -3z"/>
<path d="M3160 1111 c0 -30 160 -545 175 -561 10 -11 31 -20 47 -20 35 0 38
-25 6 -65 -21 -27 -23 -27 -112 -24 l-91 4 -3 -57 -3 -57 38 -10 c21 -6 74
-11 118 -11 102 0 159 25 192 85 25 46 215 703 207 716 -3 5 -43 9 -89 9 -80
0 -85 -1 -90 -22 -3 -13 -23 -99 -45 -193 -22 -93 -42 -180 -45 -192 -6 -27
-22 -30 -28 -5 -3 9 -26 106 -52 215 l-47 197 -89 0 c-49 0 -89 -4 -89 -9z"/>
</g>
</svg>
