<?xml version="1.0" standalone="no"?>
<!DOCTYPE svg PUBLIC "-//W3C//DTD SVG 20010904//EN"
 "http://www.w3.org/TR/2001/REC-SVG-20010904/DTD/svg10.dtd">
<svg version="1.0" xmlns="http://www.w3.org/2000/svg"
 width="1425.000000pt" height="819.000000pt" viewBox="0 0 1425.000000 819.000000"
 preserveAspectRatio="xMidYMid meet">

<g transform="translate(0.000000,819.000000) scale(0.100000,-0.100000)"
fill="#000000" stroke="none">
<path d="M2730 4095 l0 -1365 1805 0 1804 0 20 68 c11 37 32 113 47 170 l27
102 456 0 456 0 40 -170 40 -170 2048 0 2047 0 0 450 0 450 -556 2 -556 3 556
485 556 485 0 428 0 427 -1450 0 -1450 0 0 -495 0 -495 532 -2 531 -3 -518
-495 c-285 -272 -521 -496 -526 -498 -4 -2 -50 126 -101 285 -52 158 -197 606
-323 995 l-230 708 -1095 0 -1095 0 -285 -897 -285 -898 -548 -3 -547 -2 0
900 0 900 -700 0 -700 0 0 -1365z m4309 208 l137 -468 -143 -3 c-79 -1 -208
-1 -287 0 l-144 3 123 400 c67 220 132 433 144 474 12 40 25 71 28 68 2 -3 66
-216 142 -474z"/>
</g>
</svg>
