<?xml version="1.0" standalone="no"?>
<!DOCTYPE svg PUBLIC "-//W3C//DTD SVG 20010904//EN"
 "http://www.w3.org/TR/2001/REC-SVG-20010904/DTD/svg10.dtd">
<svg version="1.0" xmlns="http://www.w3.org/2000/svg"
 width="136.000000pt" height="130.000000pt" viewBox="0 0 136.000000 130.000000"
 preserveAspectRatio="xMidYMid meet">

<g transform="translate(0.000000,130.000000) scale(0.100000,-0.100000)"
fill="#000000" stroke="none">
<path d="M1 650 l0 -649 679 0 679 0 0 649 0 649 -679 0 -679 0 0 -649z m572
633 c-7 -2 -19 -2 -25 0 -7 3 -2 5 12 5 14 0 19 -2 13 -5z m250 0 c-7 -2 -19
-2 -25 0 -7 3 -2 5 12 5 14 0 19 -2 13 -5z m-348 -23 c-32 -11 -61 -18 -63
-16 -5 6 80 34 103 35 11 0 -7 -9 -40 -19z m409 -16 c201 -65 357 -217 422
-411 21 -63 26 -95 26 -177 -1 -180 -55 -310 -182 -436 -147 -147 -346 -215
-550 -189 -165 20 -304 91 -415 211 -85 92 -132 188 -153 313 -15 85 -15 100
1 186 51 291 290 505 587 528 98 7 193 -2 264 -25z m-17 30 c-3 -3 -12 -4 -19
-1 -8 3 -5 6 6 6 11 1 17 -2 13 -5z m53 -14 c18 -12 2 -12 -25 0 -13 6 -15 9
-5 9 8 0 22 -4 30 -9z m89 -40 c54 -29 162 -110 146 -110 -4 0 -25 15 -47 34
-22 19 -70 50 -106 70 -37 19 -63 36 -58 36 4 0 34 -14 65 -30z m-629 6 c0 -2
-7 -7 -16 -10 -8 -3 -12 -2 -9 4 6 10 25 14 25 6z m-40 -21 c0 -2 -10 -9 -22
-15 -22 -11 -22 -10 -4 4 21 17 26 19 26 11z m-55 -33 c-6 -4 -42 -37 -81 -73
l-71 -64 74 73 c40 39 76 72 80 72 4 0 3 -4 -2 -8z m920 -109 c38 -47 64 -87
35 -53 -12 14 -35 40 -51 58 -16 17 -26 32 -22 32 5 0 22 -17 38 -37z m-1091
-68 c-9 -14 -18 -25 -21 -25 -5 0 5 18 20 38 17 22 18 13 1 -13z m1176 -56
c12 -23 20 -43 18 -45 -3 -2 -14 17 -26 41 -27 56 -20 60 8 4z m-1217 -14 c-9
-19 -18 -33 -21 -31 -4 5 26 66 33 66 3 0 -3 -16 -12 -35z m-37 -91 c-8 -21
-15 -34 -15 -28 -1 15 20 76 25 71 2 -2 -2 -21 -10 -43z m1308 -49 c4 -27 0
-19 -14 25 -10 36 -19 67 -19 70 2 15 28 -62 33 -95z m-1327 -27 c-3 -7 -5 -2
-5 12 0 14 2 19 5 13 2 -7 2 -19 0 -25z m6 -253 c5 -28 4 -34 -3 -20 -8 19
-14 73 -6 64 2 -2 6 -22 9 -44z m1324 23 c-3 -8 -6 -5 -6 6 -1 11 2 17 5 13 3
-3 4 -12 1 -19z m-22 -79 c-8 -19 -13 -25 -9 -14 3 11 8 34 12 50 3 17 8 23
10 14 1 -9 -4 -32 -13 -50z m-1256 -74 c0 -5 -6 1 -14 15 -8 14 -14 30 -14 35
0 6 6 -1 14 -15 8 -14 14 -29 14 -35z m1226 -4 c-21 -43 -29 -39 -8 4 9 19 18
33 21 31 2 -2 -4 -18 -13 -35z m-1205 -31 c6 -11 8 -20 6 -20 -3 0 -10 9 -16
20 -6 11 -8 20 -6 20 3 0 10 -9 16 -20z m1170 -30 c-16 -29 -128 -147 -164
-172 -17 -12 1 8 40 44 38 37 83 85 98 107 30 43 44 54 26 21z m-1115 -50 c10
-11 16 -20 13 -20 -3 0 -13 9 -23 20 -10 11 -16 20 -13 20 3 0 13 -9 23 -20z
m51 -62 l29 -33 -32 29 c-31 28 -38 36 -30 36 2 0 16 -15 33 -32z m104 -85 c0
-7 -58 36 -66 49 -4 7 9 -1 29 -16 20 -16 37 -30 37 -33z m760 2 c0 -6 -85
-55 -96 -55 -5 0 14 13 41 30 55 32 55 32 55 25z m-644 -63 c-5 -4 -106 46
-106 53 0 3 25 -7 55 -22 30 -15 53 -29 51 -31z m505 -8 c-18 -8 -47 -17 -65
-20 -18 -3 -8 3 24 15 65 23 89 25 41 5z m-398 -21 c-7 -2 -19 -2 -25 0 -7 3
-2 5 12 5 14 0 19 -2 13 -5z m50 -10 c-7 -2 -19 -2 -25 0 -7 3 -2 5 12 5 14 0
19 -2 13 -5z m240 0 c-7 -2 -21 -2 -30 0 -10 3 -4 5 12 5 17 0 24 -2 18 -5z"/>
<path d="M696 1189 c-9 -44 -8 -59 4 -59 6 0 10 7 10 15 0 9 9 15 25 15 14 0
28 7 31 15 8 21 -14 45 -41 45 -17 0 -24 -7 -29 -31z m52 -1 c-3 -7 -11 -13
-18 -13 -7 0 -15 6 -17 13 -3 7 4 12 17 12 13 0 20 -5 18 -12z"/>
<path d="M618 1198 c-5 -13 14 -78 23 -78 5 0 5 15 0 83 -1 11 -19 8 -23 -5z"/>
<path d="M518 1195 c-7 -7 14 -80 26 -92 5 -4 5 8 1 27 -11 50 -20 72 -27 65z"/>
<path d="M562 1178 c-27 -27 1 -73 36 -61 18 7 15 60 -4 67 -20 8 -18 8 -32
-6z m38 -38 c0 -5 -7 -10 -16 -10 -8 0 -12 5 -9 10 3 6 10 10 16 10 5 0 9 -4
9 -10z"/>
<path d="M780 1171 c0 -6 7 -8 15 -5 8 4 15 1 15 -5 0 -6 -9 -11 -20 -11 -22
0 -28 -28 -7 -34 54 -17 65 -16 71 9 4 14 14 25 22 25 10 0 14 -5 10 -15 -21
-52 -21 -51 -3 -36 15 12 17 11 17 -6 0 -12 11 -25 27 -32 23 -11 29 -10 39 3
11 15 34 22 34 10 0 -3 -5 -14 -11 -26 -16 -30 -4 -32 15 -2 17 24 17 27 -1
46 -17 20 -18 19 -40 -9 -28 -35 -30 -20 -3 25 11 17 16 32 12 32 -4 0 -16
-14 -26 -31 -14 -24 -21 -28 -27 -18 -13 20 -11 29 6 29 8 0 15 5 15 11 0 6
-9 8 -21 4 -18 -6 -19 -4 -10 12 9 18 6 19 -25 19 -28 -1 -36 -6 -41 -26 -7
-25 -7 -25 -13 5 -4 21 -12 31 -28 33 -12 2 -22 -1 -22 -7z m30 -35 c0 -11
-19 -15 -25 -6 -3 5 1 10 9 10 9 0 16 -2 16 -4z"/>
<path d="M430 1165 c-1 -5 -1 -26 0 -45 l2 -35 -26 24 c-40 37 -41 19 -1 -19
41 -40 52 -27 37 42 -6 24 -11 39 -12 33z"/>
<path d="M465 1148 c-6 -16 -1 -45 8 -54 3 -3 17 -4 31 0 23 6 24 9 14 36 -10
31 -44 42 -53 18z m25 -8 c0 -5 -5 -10 -11 -10 -5 0 -7 5 -4 10 3 6 8 10 11
10 2 0 4 -4 4 -10z m10 -30 c0 -5 -4 -10 -10 -10 -5 0 -10 5 -10 10 0 6 5 10
10 10 6 0 10 -4 10 -10z"/>
<path d="M315 1080 c4 -6 2 -17 -5 -25 -8 -10 -8 -19 0 -34 13 -25 42 -27 60
-6 11 13 8 21 -15 45 -28 29 -53 41 -40 20z m34 -43 c6 -8 8 -16 5 -20 -10 -9
-34 4 -34 19 0 18 14 18 29 1z"/>
<path d="M1016 1044 c-19 -19 -20 -26 -4 -42 8 -8 9 -12 1 -12 -6 0 -13 6 -16
13 -2 6 -8 9 -12 5 -10 -9 13 -38 29 -38 7 0 24 13 39 28 27 28 27 29 9 45
-23 21 -27 21 -46 1z m34 -19 c0 -8 -7 -15 -15 -15 -16 0 -20 12 -8 23 11 12
23 8 23 -8z"/>
<path d="M548 1031 c-120 -39 -206 -109 -261 -216 -30 -56 -32 -67 -32 -165 0
-96 3 -110 29 -165 153 -312 626 -313 789 -1 30 57 32 67 32 166 0 97 -2 110
-30 165 -55 109 -167 197 -286 224 -68 16 -178 12 -241 -8z m407 -134 l50 -13
-3 -50 c-2 -27 -8 -53 -13 -59 -6 -6 -7 11 -3 46 l6 56 -36 6 c-20 3 -67 4
-104 3 -60 -3 -62 -3 -17 4 l50 7 -50 1 c-27 1 -77 -5 -110 -12 -72 -17 -82
-14 -23 7 54 19 186 21 253 4z m-325 -36 c-8 -5 -26 -11 -40 -15 -21 -5 -20
-3 5 9 32 15 60 20 35 6z m-23 -83 c-3 -7 -5 -2 -5 12 0 14 2 19 5 13 2 -7 2
-19 0 -25z m177 -36 c-16 -13 -17 -14 -1 -9 9 4 17 3 17 -2 0 -5 -14 -11 -31
-15 -53 -10 -67 14 -22 38 36 18 64 9 37 -12z m161 18 c6 -9 -94 -44 -103 -35
-3 3 3 14 13 25 19 21 79 28 90 10z m-327 -122 l7 -43 72 -3 c97 -4 113 5 113
67 l0 49 48 7 c26 4 66 15 90 25 47 21 49 19 36 -49 -5 -26 -11 -31 -35 -31
-41 0 -73 -18 -93 -50 -14 -24 -24 -30 -64 -33 l-47 -3 52 -2 c44 -2 53 1 58
18 18 58 107 79 150 35 36 -35 31 -52 -6 -21 -17 14 -42 26 -55 26 -30 0 -71
-38 -80 -74 l-6 -26 -118 0 c-102 0 -121 3 -141 20 -15 12 -19 19 -10 20 11 0
13 18 9 98 -5 95 -2 91 20 -30z m-43 72 c-3 -5 -13 -10 -21 -10 -8 0 -14 -4
-14 -9 0 -5 -8 -12 -17 -15 -10 -3 1 -3 25 0 l42 6 0 -51 c0 -43 -3 -51 -18
-51 -10 0 -29 12 -43 26 -13 14 -34 30 -46 35 -23 9 -23 34 0 42 7 2 0 3 -15
1 -16 -2 -28 0 -28 5 0 4 28 13 63 18 34 6 66 11 70 12 5 0 5 -3 2 -9z m225
-45 c0 -34 -5 -47 -19 -55 -24 -12 -138 -14 -145 -2 -3 5 -8 27 -12 50 l-6 41
83 4 c46 1 87 4 92 5 4 1 7 -18 7 -43z m-370 15 c0 -5 -2 -10 -4 -10 -3 0 -8
5 -11 10 -3 6 -1 10 4 10 6 0 11 -4 11 -10z m13 -30 c-4 -4 -21 -10 -38 -13
-16 -4 -24 -4 -17 -1 6 3 12 11 12 18 0 9 9 12 26 8 14 -2 22 -8 17 -12z m-78
-20 c-3 -5 -12 -10 -18 -10 -7 0 -6 4 3 10 19 12 23 12 15 0z m178 -51 c32
-28 56 -54 53 -57 -3 -3 -28 16 -55 41 -27 25 -62 49 -78 52 -47 11 -49 13
-12 14 29 1 45 -8 92 -50z m-136 35 c-3 -3 -12 -4 -19 -1 -8 3 -5 6 6 6 11 1
17 -2 13 -5z m590 -26 c32 -30 31 -81 -2 -113 -40 -41 -92 -30 -115 25 -32 77
57 145 117 88z m-512 -13 c31 -30 32 -73 4 -109 -47 -59 -138 -13 -125 64 10
67 76 91 121 45z"/>
<path d="M738 723 c7 -3 16 -2 19 1 4 3 -2 6 -13 5 -11 0 -14 -3 -6 -6z"/>
<path d="M907 582 c-26 -29 -22 -88 8 -108 29 -19 60 -11 81 22 41 62 -41 140
-89 86z m56 -39 c9 -9 -13 -34 -24 -27 -14 8 -11 34 4 34 8 0 17 -3 20 -7z"/>
<path d="M402 573 c-32 -27 -37 -64 -12 -96 27 -35 62 -35 89 -1 27 35 26 59
-4 89 -29 30 -46 31 -73 8z m48 -53 c0 -11 -7 -20 -15 -20 -15 0 -21 21 -8 33
12 13 23 7 23 -13z"/>
<path d="M267 1013 c-4 -3 -7 -17 -7 -29 0 -29 36 -42 58 -20 14 14 14 17 -3
36 -18 20 -36 25 -48 13z m23 -17 c0 -3 -4 -8 -10 -11 -5 -3 -10 -1 -10 4 0 6
5 11 10 11 6 0 10 -2 10 -4z m20 -16 c0 -5 -5 -10 -11 -10 -5 0 -7 5 -4 10 3
6 8 10 11 10 2 0 4 -4 4 -10z"/>
<path d="M212 968 c3 -7 19 -21 37 -32 24 -14 35 -16 44 -7 8 8 7 11 -5 11 -9
0 -23 6 -30 13 -20 20 -51 30 -46 15z"/>
<path d="M1040 965 c-8 -9 -8 -15 -2 -15 12 0 26 19 19 26 -2 2 -10 -2 -17
-11z"/>
<path d="M1112 939 c-18 -12 -31 -23 -29 -26 7 -6 77 29 77 39 0 13 -12 9 -48
-13z"/>
<path d="M190 941 c0 -5 14 -14 30 -21 41 -17 48 -31 11 -24 -23 5 -32 2 -40
-14 -12 -22 -9 -26 33 -41 33 -13 34 2 0 17 -31 15 -23 35 10 23 17 -7 25 -5
33 9 10 14 7 20 -15 30 -15 8 -30 13 -34 12 -5 -1 -8 3 -8 8 0 6 -4 10 -10 10
-5 0 -10 -4 -10 -9z"/>
<path d="M1118 908 c-16 -5 -28 -14 -28 -20 0 -6 8 -7 18 -3 9 4 23 9 30 12 6
3 12 -2 12 -10 0 -9 -9 -19 -21 -22 -13 -4 -18 -12 -15 -22 3 -8 6 -23 6 -34
0 -11 7 -19 18 -19 13 0 14 2 3 9 -16 10 -6 31 14 31 7 0 15 -10 18 -22 3 -20
4 -21 11 -5 12 26 -12 50 -43 43 -26 -6 -26 -6 2 10 19 10 27 21 23 31 -3 8
-6 19 -6 24 0 11 -7 10 -42 -3z"/>
<path d="M150 832 c0 -6 15 -12 33 -14 24 -2 32 -8 32 -23 0 -17 -6 -20 -40
-17 -30 3 -37 1 -29 -8 6 -6 29 -10 50 -8 32 2 40 7 42 27 2 13 0 27 -5 31
-14 14 -83 23 -83 12z"/>
<path d="M843 193 c-7 -3 -13 -14 -13 -24 0 -11 5 -17 10 -14 6 3 10 -1 10 -9
0 -10 -6 -13 -15 -10 -8 4 -15 17 -15 30 0 20 -4 23 -37 20 -41 -2 -59 -31
-28 -42 12 -5 13 -9 5 -14 -7 -4 13 -7 44 -7 52 0 56 1 56 23 0 13 -6 24 -12
24 -9 0 -8 3 2 10 16 10 11 20 -7 13z m-73 -29 c0 -8 -5 -12 -10 -9 -6 4 -8
11 -5 16 9 14 15 11 15 -7z"/>
<path d="M502 173 c2 -9 10 -19 18 -21 13 -5 13 -3 1 11 -15 19 -1 23 16 6 14
-14 -11 -44 -27 -34 -5 3 -10 2 -10 -4 0 -6 16 -10 35 -9 22 1 35 6 35 15 0 7
5 13 10 13 6 0 10 -6 10 -14 0 -17 15 -23 55 -22 25 1 30 5 30 26 0 23 -3 24
-64 26 -35 1 -68 7 -74 13 -17 17 -39 13 -35 -6z m133 -33 c-3 -5 -10 -10 -16
-10 -5 0 -9 5 -9 10 0 6 7 10 16 10 8 0 12 -4 9 -10z"/>
<path d="M716 182 c-3 -5 -1 -22 4 -38 8 -29 8 -29 9 9 1 36 -3 45 -13 29z"/>
</g>
</svg>
